<mxfile host="app.diagrams.net" agent="Mozilla/5.0 (Windows NT 10.0; Win64; x64) AppleWebKit/537.36 (KHTML, like Gecko) Chrome/131.0.0.0 Safari/537.36" version="25.0.3">
  <diagram name="Страница — 1" id="aWmqYJOukRvnQ4QJVPiF">
    <mxGraphModel dx="830" dy="458" grid="1" gridSize="10" guides="1" tooltips="1" connect="1" arrows="1" fold="1" page="1" pageScale="1" pageWidth="827" pageHeight="1169" math="0" shadow="0">
      <root>
        <mxCell id="0" />
        <mxCell id="1" parent="0" />
        <mxCell id="iJGNU9h4wFBElqlkk2uX-1" value="S0" style="ellipse;whiteSpace=wrap;html=1;aspect=fixed;" vertex="1" parent="1">
          <mxGeometry x="300" y="210" width="60" height="60" as="geometry" />
        </mxCell>
        <mxCell id="iJGNU9h4wFBElqlkk2uX-2" value="S1" style="ellipse;whiteSpace=wrap;html=1;aspect=fixed;" vertex="1" parent="1">
          <mxGeometry x="300" y="320" width="60" height="60" as="geometry" />
        </mxCell>
        <mxCell id="iJGNU9h4wFBElqlkk2uX-3" value="" style="curved=1;endArrow=classic;html=1;rounded=0;exitX=1;exitY=0.5;exitDx=0;exitDy=0;" edge="1" parent="1" source="iJGNU9h4wFBElqlkk2uX-1" target="iJGNU9h4wFBElqlkk2uX-2">
          <mxGeometry width="50" height="50" relative="1" as="geometry">
            <mxPoint x="360" y="250" as="sourcePoint" />
            <mxPoint x="450" y="220" as="targetPoint" />
            <Array as="points">
              <mxPoint x="370" y="240" />
              <mxPoint x="390" y="240" />
              <mxPoint x="420" y="280" />
            </Array>
          </mxGeometry>
        </mxCell>
        <mxCell id="iJGNU9h4wFBElqlkk2uX-4" value="" style="curved=1;endArrow=classic;html=1;rounded=0;exitX=0;exitY=0;exitDx=0;exitDy=0;entryX=0;entryY=0.5;entryDx=0;entryDy=0;" edge="1" parent="1" source="iJGNU9h4wFBElqlkk2uX-2" target="iJGNU9h4wFBElqlkk2uX-1">
          <mxGeometry width="50" height="50" relative="1" as="geometry">
            <mxPoint x="240" y="320" as="sourcePoint" />
            <mxPoint x="290" y="270" as="targetPoint" />
            <Array as="points">
              <mxPoint x="290" y="320" />
              <mxPoint x="240" y="270" />
            </Array>
          </mxGeometry>
        </mxCell>
        <mxCell id="iJGNU9h4wFBElqlkk2uX-5" value="" style="curved=1;endArrow=classic;html=1;rounded=0;exitX=1;exitY=0.5;exitDx=0;exitDy=0;" edge="1" parent="1" source="iJGNU9h4wFBElqlkk2uX-2" target="iJGNU9h4wFBElqlkk2uX-2">
          <mxGeometry width="50" height="50" relative="1" as="geometry">
            <mxPoint x="366" y="350" as="sourcePoint" />
            <mxPoint x="350" y="410" as="targetPoint" />
            <Array as="points">
              <mxPoint x="376" y="350" />
              <mxPoint x="396" y="350" />
              <mxPoint x="420" y="420" />
            </Array>
          </mxGeometry>
        </mxCell>
        <mxCell id="iJGNU9h4wFBElqlkk2uX-6" value="" style="curved=1;endArrow=classic;html=1;rounded=0;exitX=0.027;exitY=0.333;exitDx=0;exitDy=0;entryX=0.5;entryY=0;entryDx=0;entryDy=0;exitPerimeter=0;" edge="1" parent="1" source="iJGNU9h4wFBElqlkk2uX-1" target="iJGNU9h4wFBElqlkk2uX-1">
          <mxGeometry width="50" height="50" relative="1" as="geometry">
            <mxPoint x="300" y="229" as="sourcePoint" />
            <mxPoint x="330" y="190" as="targetPoint" />
            <Array as="points">
              <mxPoint x="281" y="220" />
              <mxPoint x="300" y="160" />
            </Array>
          </mxGeometry>
        </mxCell>
        <mxCell id="iJGNU9h4wFBElqlkk2uX-7" value="" style="endArrow=classic;html=1;rounded=0;entryX=0.78;entryY=0.12;entryDx=0;entryDy=0;entryPerimeter=0;" edge="1" parent="1" target="iJGNU9h4wFBElqlkk2uX-1">
          <mxGeometry width="50" height="50" relative="1" as="geometry">
            <mxPoint x="380" y="180" as="sourcePoint" />
            <mxPoint x="410" y="140" as="targetPoint" />
          </mxGeometry>
        </mxCell>
        <mxCell id="iJGNU9h4wFBElqlkk2uX-8" value="RST" style="text;html=1;align=center;verticalAlign=middle;whiteSpace=wrap;rounded=0;" vertex="1" parent="1">
          <mxGeometry x="370" y="160" width="60" height="30" as="geometry" />
        </mxCell>
        <mxCell id="iJGNU9h4wFBElqlkk2uX-9" value="0/0" style="text;html=1;align=center;verticalAlign=middle;whiteSpace=wrap;rounded=0;" vertex="1" parent="1">
          <mxGeometry x="250" y="170" width="60" height="30" as="geometry" />
        </mxCell>
        <mxCell id="iJGNU9h4wFBElqlkk2uX-10" value="1/0" style="text;html=1;align=center;verticalAlign=middle;whiteSpace=wrap;rounded=0;" vertex="1" parent="1">
          <mxGeometry x="210" y="260" width="60" height="30" as="geometry" />
        </mxCell>
        <mxCell id="iJGNU9h4wFBElqlkk2uX-11" value="1/1" style="text;html=1;align=center;verticalAlign=middle;whiteSpace=wrap;rounded=0;" vertex="1" parent="1">
          <mxGeometry x="390" y="260" width="60" height="30" as="geometry" />
        </mxCell>
        <mxCell id="iJGNU9h4wFBElqlkk2uX-12" value="0/1" style="text;html=1;align=center;verticalAlign=middle;whiteSpace=wrap;rounded=0;" vertex="1" parent="1">
          <mxGeometry x="390" y="360" width="60" height="30" as="geometry" />
        </mxCell>
      </root>
    </mxGraphModel>
  </diagram>
</mxfile>
